<?xml version="1.0" encoding="UTF-8" standalone="no"?>
<svg
   xmlns:dc="http://purl.org/dc/elements/1.1/"
   xmlns:cc="http://creativecommons.org/ns#"
   xmlns:rdf="http://www.w3.org/1999/02/22-rdf-syntax-ns#"
   xmlns:svg="http://www.w3.org/2000/svg"
   xmlns="http://www.w3.org/2000/svg"
   xmlns:sodipodi="http://sodipodi.sourceforge.net/DTD/sodipodi-0.dtd"
   xmlns:inkscape="http://www.inkscape.org/namespaces/inkscape"
   viewBox="0 0 512 512"
   version="1.1"
   id="svg8"
   sodipodi:docname="flag-ast.svg"
   inkscape:version="0.92.5 (2060ec1f9f, 2020-04-08)">
  <metadata
     id="metadata14">
    <rdf:RDF>
      <cc:Work
         rdf:about="">
        <dc:format>image/svg+xml</dc:format>
        <dc:type
           rdf:resource="http://purl.org/dc/dcmitype/StillImage" />
      </cc:Work>
    </rdf:RDF>
  </metadata>
  <defs
     id="defs12" />
  <sodipodi:namedview
     pagecolor="#ffffff"
     bordercolor="#666666"
     borderopacity="1"
     objecttolerance="10"
     gridtolerance="10"
     guidetolerance="10"
     inkscape:pageopacity="0"
     inkscape:pageshadow="2"
     inkscape:window-width="1680"
     inkscape:window-height="987"
     id="namedview10"
     showgrid="false"
     inkscape:zoom="1.3037281"
     inkscape:cx="124.90229"
     inkscape:cy="257.94491"
     inkscape:window-x="1440"
     inkscape:window-y="0"
     inkscape:window-maximized="1"
     inkscape:current-layer="svg8" />
  <path
     d="m 0,256 c 0,31.314 5.633,61.31 15.923,89.043 L 256,367.304 496.077,345.043 C 506.367,317.31 512,287.314 512,256 c 0,-31.314 -5.633,-61.31 -15.923,-89.043 L 256,144.696 15.923,166.957 C 5.633,194.69 0,224.686 0,256 Z"
     id="path2"
     style="fill:#0000ff"
     inkscape:connector-curvature="0" />
  <g
     fill="#d80027"
     id="g6">
    <path
       d="M 496.077,166.957 C 459.906,69.473 366.071,0 256,0 145.929,0 52.094,69.473 15.923,166.957 Z M 15.923,345.043 C 52.094,442.527 145.929,512 256,512 366.071,512 459.906,442.527 496.077,345.043 Z"
       id="path4"
       style="fill:#0000ff"
       inkscape:connector-curvature="0" />
  </g>
  <g
     transform="matrix(0.7093037,0,0,0.7093037,43.212688,43.224051)"
     style="fill:#f7d417"
     id="g14">
    <path
       inkscape:connector-curvature="0"
       d="m 214.56,311.24 2.1179,4.7626 -14.914,26.812 -4.5006,5.1152 h 14.649 l -2.3828,-5.7327 2.824,-5.1152 10.148,8.9958 10.06,-8.9958 2.824,5.1152 -2.3828,5.7327 h 14.649 l -4.4123,-5.1152 -15.002,-26.812 2.2062,-4.7626 h -15.885 z m 7.9424,7.7611 6.3538,11.465 -6.3538,5.7327 -6.442,-5.7327 z"
       id="path4-3" />
    <path
       inkscape:connector-curvature="0"
       d="m 272.58,297.07 c 2.5637,4.6859 6.1758,8.642 10.487,11.503 l -1.69,158.79 c -1.9481,0.36111 -14.939,13.609 -15.498,15.825 -0.23312,1.0951 -0.40834,2.252 -0.40834,3.3471 0,7.4259 5.7686,13.451 12.936,13.451 3.7282,0 7.3414,-1.7039 9.7888,-4.6859 3.263,3.043 7.4574,4.6859 11.769,4.6859 4.3707,0 8.5651,-1.643 11.77,-4.6859 2.4474,2.982 6.0596,4.6859 9.7888,4.6859 7.1664,0 12.935,-6.025 12.935,-13.451 0,-1.0951 -0.11536,-2.252 -0.40725,-3.2861 -0.32323,-1.3689 -13.982,-15.605 -15.499,-15.886 l -1.69,-158.79 c 4.3707,-2.9211 7.9829,-6.8781 10.546,-11.503 l 88.448,-0.73092 c 0.64146,5.4469 11.638,20.086 17.072,20.086 5.7675,0 10.429,-4.93 10.429,-10.895 0,-3.5301 -1.5728,-6.756 -4.3115,-8.8251 -2.3895,-1.826 -1.1658,-5.783 1.8062,-5.783 1.0487,0 2.0393,0.54808 2.6216,1.5219 0.93247,0.24313 1.8652,0.36503 2.7976,0.36503 4.1944,0 7.9236,-2.5561 9.6138,-6.512 0.69849,-1.7651 1.1066,-3.652 1.1066,-5.539 0,-1.887 -0.40812,-3.713 -1.1066,-5.478 -1.6899,-3.9561 -5.4192,-6.5731 -9.6138,-6.5731 -0.93248,0 -1.8652,0.18284 -2.7976,0.42598 -1.631,2.7391 -5.6514,1.5219 -5.6514,-1.7039 0,-0.97407 0.46624,-1.9479 1.2237,-2.5569 2.7387,-2.0689 4.3115,-5.3559 4.3115,-8.8251 0,-6.025 -4.6617,-10.895 -10.429,-10.895 -5.4262,0 -16.433,14.655 -17.072,20.086 l -88.437,-0.76184 c -2.7861,-5.1152 -6.8129,-9.3597 -11.71,-12.276 l -0.82713,-109.32 c 4.9449,-0.63498 19.17,-12.67 19.17,-17.833 0,-5.965 -4.6617,-10.895 -10.43,-10.895 -3.3209,0 -6.4668,1.705 -8.3901,4.504 -1.7481,2.496 -5.5352,1.218 -5.5352,-1.886 0,-1.096 0.52435,-2.131 1.3989,-2.678 0.29124,-0.974 0.40725,-2.009 0.40725,-2.9829 0,-4.3211 -2.4474,-8.277 -6.2348,-9.982 -1.6891,-0.791 -3.4961,-1.156 -5.3023,-1.156 -1.806,0 -3.6121,0.36503 -5.2442,1.156 -3.8453,1.705 -6.2927,5.6611 -6.2927,9.982 0,1.035 0.11754,2.009 0.40834,2.9829 0.87458,0.54697 1.4568,1.582 1.4568,2.678 0,1.765 -1.3989,3.225 -3.0878,3.225 -0.99059,0 -1.8652,-0.48597 -2.4474,-1.339 -1.9812,-2.799 -5.1271,-4.504 -8.4491,-4.504 -5.7686,0 -10.429,4.93 -10.429,10.895 0,5.6631 14.029,17.249 19.228,17.833 l -0.87349,109.31 c -4.8359,2.9211 -8.8563,7.121 -11.653,12.233 l -88.507,0.79209 c -0.60332,-5.1261 -12.17,-20.086 -17.072,-20.086 -5.7686,0 -10.429,4.8701 -10.429,10.895 0,3.469 1.631,6.756 4.3115,8.8251 0.75746,0.60903 1.2237,1.5831 1.2237,2.5569 0,1.7651 -1.3408,3.226 -3.0299,3.226 -1.0496,0 -2.0392,-0.54809 -2.5645,-1.5219 -0.93156,-0.24314 -1.9222,-0.42598 -2.8547,-0.42598 -4.1365,0 -7.9236,2.617 -9.5557,6.5731 -0.75745,1.7039 -1.1066,3.5911 -1.1066,5.478 0,1.9481 0.3492,3.7739 1.1066,5.539 1.632,3.9561 5.4192,6.512 9.5557,6.512 0.93256,0 1.9232,-0.1219 2.8547,-0.42598 1.632,-2.678 5.5944,-1.461 5.5944,1.7039 0,1.035 -0.46628,2.0091 -1.2237,2.6181 -2.6805,2.008 -4.3115,5.295 -4.3115,8.8251 0,5.965 4.6609,10.895 10.429,10.895 4.8798,0 16.472,-14.987 17.072,-20.086 l 88.507,0.73092 -4e-5,2e-5 z"
       id="path6" />
    <path
       inkscape:connector-curvature="0"
       d="m 219.63,296.66 5.7063,0.0653 v 14.475 H 219.63 v 0 z"
       id="path8" />
    <path
       inkscape:connector-curvature="0"
       d="m 371.16,313.88 c 1.5731,1.2181 2.5636,3.043 2.7386,5.113 0.11537,0.791 0.17414,1.582 0.17414,2.434 0,3.8351 -0.93248,7.6079 -2.6806,10.956 -2.6805,5.295 -9.964,4.93 -12.177,-0.54809 -0.93247,-2.373 -1.3989,-4.9299 -1.3408,-7.486 0.23312,-5.5999 3.322,-10.712 8.1578,-13.147 h -13.052 c 0.69935,0.66998 1.0487,1.5219 1.0487,2.496 0,0.30408 0,0.60795 -0.11536,0.91312 -1.0496,3.8949 -1.5739,7.9729 -1.5739,12.051 0,2.008 0.11754,3.9561 0.40812,5.9641 0.81559,6.6961 6.3508,11.747 12.877,11.747 5.1282,0 9.7888,-3.1651 11.828,-8.0341 2.0972,4.93 6.7591,8.0341 11.886,8.0341 6.526,0 12.061,-5.051 12.878,-11.807 0.23203,-2.0091 0.40725,-3.957 0.40725,-5.904 0,-4.078 -0.58226,-8.095 -1.631,-12.051 -0.29123,-1.2181 0.0588,-2.5569 0.93161,-3.4091 h -13.007 c 4.8359,2.496 7.9236,7.547 8.0989,13.147 v 0.60903 c 0,2.3121 -0.40834,4.6859 -1.2818,6.877 -2.2143,5.478 -9.4978,5.8431 -12.178,0.60904 -2.1553,-4.139 -3.0299,-8.8251 -2.5634,-13.512 0.23312,-2.0091 1.2237,-3.834 2.7966,-5.0521 h -12.644 v 2e-5 z"
       id="path10" />
    <path
       inkscape:connector-curvature="0"
       d="m 374.61,296.72 5.7716,-0.0653 v 17.217 H 374.61 v 0 z"
       id="path12" />
  </g>
</svg>
